<svg width="80" height="27" viewBox="0 0 80 27" fill="none" xmlns="http://www.w3.org/2000/svg">
<path d="M19.5598 26.5604C19.4271 26.5604 19.1617 26.4276 18.8962 26.0292L18.2326 24.17H14.1182L13.4546 26.0292C13.3219 26.4276 13.0565 26.5604 12.791 26.5604C12.5256 26.5604 12.1274 26.2948 12.1274 25.8964C12.1274 25.7636 12.1274 25.6308 12.2602 25.498L15.4455 17.5299C15.7109 16.8658 15.9764 16.8658 16.2418 16.8658C16.5072 16.8658 16.7727 16.9986 17.0381 17.5299L20.2234 25.498C20.3562 25.6308 20.3562 25.7636 20.3562 25.8964C20.2235 26.2948 19.8253 26.5604 19.5598 26.5604ZM17.7017 22.8419L16.1091 18.5923L14.5164 22.8419H17.7017ZM27.2577 17.9283C27.3904 17.7955 27.3904 17.5299 27.3904 17.5299C27.3904 17.1314 27.125 16.8658 26.7268 16.8658C26.4613 16.8658 26.1959 16.9986 26.0632 17.397L23.276 24.7012L20.4889 17.397C20.3562 16.9986 20.0907 16.8658 19.8253 16.8658C19.4271 16.8658 19.1617 17.1314 19.1617 17.5299C19.1617 17.6627 19.1617 17.7955 19.2944 17.9283L22.347 25.7636C22.6124 26.4276 23.0106 26.5604 23.276 26.5604C23.5415 26.5604 23.9396 26.4276 24.2051 25.7636L27.2577 17.9283ZM33.761 22.0451C34.2919 22.0451 34.4247 21.6467 34.4247 21.5139C34.4247 21.3811 34.2919 20.9827 33.761 20.9827H29.7794V18.1939H34.0265C34.5574 18.1939 34.6901 17.7955 34.6901 17.6627C34.6901 17.5299 34.5574 17.1314 34.0265 17.1314H29.2485C28.7176 17.1314 28.4522 17.3971 28.4522 17.9283V25.8964C28.4522 26.4276 28.7176 26.6932 29.2485 26.6932H34.1592C34.6901 26.6932 34.8228 26.2948 34.8228 26.162C34.8228 26.0292 34.6901 25.6308 34.1592 25.6308H29.7794V22.4435H33.761V22.0451ZM54.8638 26.5604C54.731 26.5604 54.4656 26.4276 54.2001 26.0292L53.5365 24.17H49.4222L48.7586 26.0292C48.6258 26.4276 48.3604 26.5604 48.095 26.5604C47.8295 26.5604 47.4313 26.2948 47.4313 25.8964C47.4313 25.7636 47.4314 25.6308 47.5641 25.498L50.7494 17.5299C51.0148 16.8658 51.2803 16.8658 51.5457 16.8658C51.8112 16.8658 52.0766 16.9986 52.3421 17.5299L55.5274 25.498C55.6601 25.6308 55.6601 25.7636 55.6601 25.8964C55.5274 26.2948 55.2619 26.5604 54.8638 26.5604ZM53.1384 22.8419L51.5457 18.5923L49.953 22.8419H53.1384ZM45.706 26.5604C45.9714 26.5604 46.3696 26.4276 46.3696 25.7636V17.6627C46.3696 16.8659 45.8387 16.733 45.5733 16.733C45.3078 16.733 44.9096 16.8658 44.6442 17.5299L41.4589 24.7012L38.2736 17.5299C38.0081 16.8658 37.6099 16.733 37.3445 16.733C37.0791 16.733 36.5482 16.8659 36.5482 17.6627V25.7636C36.5482 26.4276 36.9463 26.4276 37.2118 26.4276C37.4772 26.4276 37.8754 26.2948 37.8754 25.7636V19.6547L40.6625 25.8964C40.928 26.4276 41.1934 26.5604 41.4589 26.5604C41.7243 26.5604 41.9898 26.4276 42.2552 25.8964L45.0424 19.5219V25.7636C45.0424 26.4276 45.4405 26.5604 45.706 26.5604ZM63.8888 25.8964C63.8888 25.7636 63.8888 25.498 63.6234 25.3652L59.509 21.3811L63.3579 18.0611C63.6234 17.7955 63.6234 17.6627 63.6234 17.5299C63.6234 17.1314 63.3579 16.9987 62.9598 16.9987C62.8271 16.9987 62.5616 17.1315 62.4289 17.2643L58.0491 21.2483V17.5299C58.0491 16.8658 57.6509 16.733 57.3855 16.733C57.12 16.733 56.7218 16.8658 56.7218 17.5299V25.7636C56.7218 26.4276 57.12 26.5604 57.3855 26.5604C57.6509 26.5604 58.0491 26.4276 58.0491 25.7636V21.5139L62.6943 26.2948C62.827 26.5604 63.0925 26.5604 63.2252 26.5604C63.6234 26.5604 63.8888 26.162 63.8888 25.8964ZM70.5249 22.0451C71.0558 22.0451 71.1885 21.6467 71.1885 21.5139C71.1885 21.3811 71.0558 20.9827 70.5249 20.9827H66.5432V18.1939H70.7903C71.3212 18.1939 71.4539 17.7955 71.4539 17.6627C71.4539 17.5299 71.3212 17.1314 70.7903 17.1314H66.0124C65.4815 17.1314 65.216 17.3971 65.216 17.9283V25.8964C65.216 26.4276 65.4815 26.6932 66.0124 26.6932H70.9231C71.4539 26.6932 71.5867 26.2948 71.5867 26.162C71.5867 26.0292 71.4539 25.6308 70.9231 25.6308H66.5432V22.4435H70.5249V22.0451ZM75.8337 22.1779H74.3738V25.7636C74.3738 26.4276 73.9756 26.5604 73.7102 26.5604C73.4447 26.5604 73.0466 26.4276 73.0466 25.7636V17.6627C73.0466 17.1315 73.312 16.8658 73.8429 16.8658H76.0992C77.9573 16.8658 79.4172 17.5299 79.4172 19.5219C79.4172 20.8499 78.4882 21.7795 77.1609 22.0451L79.4172 25.3652C79.5499 25.498 79.55 25.7636 79.55 25.7636C79.55 26.162 79.2845 26.4276 78.8863 26.4276C78.7536 26.4276 78.4882 26.2948 78.3554 26.0292L75.8337 22.1779ZM74.3738 20.9827H75.9665C77.1609 20.9827 78.2227 20.5843 78.2227 19.3891C78.2227 18.1939 77.2937 17.9283 76.0992 17.9283H74.5065V20.9827H74.3738ZM12.6583 16.8658C12.2601 16.733 11.862 16.8658 11.7293 17.2643L9.07485 24.4356L7.21676 17.2643C7.08404 16.9986 6.81859 16.733 6.55315 16.733C6.28771 16.733 6.02226 16.8658 5.88954 17.2643L4.03141 24.4356L1.37698 17.2643C1.24426 16.8658 0.84612 16.733 0.447955 16.8658C0.049791 16.9986 -0.0829547 17.397 0.0497668 17.7955L3.10238 25.8964C3.23511 26.162 3.36782 26.2948 3.63326 26.4276C4.16415 26.5604 4.69503 26.4276 4.82775 25.8964V25.7636L6.42042 19.5219L8.01305 25.7636V25.8964C8.14578 26.4276 8.80942 26.6932 9.20758 26.4276C9.47302 26.2948 9.60574 26.162 9.73846 25.8964L12.791 17.7955C13.1892 17.397 13.0565 16.9986 12.6583 16.8658Z" fill="white"/>
<path d="M53.0056 11.9526C52.8729 11.9526 52.7401 11.9526 52.6074 11.9526C52.0765 11.9526 51.5456 11.5542 51.4129 11.023L49.5548 5.17966L47.6967 11.023C47.564 11.5542 47.0331 11.023 46.5022 11.023C45.9713 11.023 45.4404 11.5542 45.3077 11.023L43.4496 5.17966L41.5915 11.023C41.4588 11.5542 40.9279 11.9526 40.397 11.9526C40.2643 11.9526 40.1316 11.9526 39.9988 11.9526C39.3352 11.687 38.9371 11.023 39.2025 10.359L42.2551 0.929999C42.3878 0.398791 42.9187 0.929999 43.4496 0.929999C43.9805 0.929999 44.5114 0.398791 44.6441 0.929999L46.5022 6.77328L48.3603 0.929999C48.4931 0.398791 49.0239 0.929999 49.5548 0.929999C50.0857 0.929999 50.6166 0.398791 50.7493 0.929999L53.8019 10.359C54.0673 11.023 53.6692 11.687 53.0056 11.9526ZM39.6007 0.133179C39.468 0.133179 39.3352 0.133179 39.2025 0.133179C38.6716 0.133179 38.1407 0.531601 38.008 1.06281L36.1499 6.90609L34.2918 1.06281C34.1591 0.531601 33.6282 1.06281 33.0973 1.06281C32.5664 1.06281 32.0355 0.531601 31.9028 1.06281L30.0447 6.90609L28.1866 1.06281C28.0539 0.531601 27.523 0.133179 26.9921 0.133179C26.8594 0.133179 26.7266 0.133179 26.5939 0.133179C25.9303 0.398783 25.5322 1.06281 25.7976 1.72682L28.8502 11.1558C28.9829 11.687 29.5138 11.1558 30.0447 11.1558C30.5756 11.1558 31.1065 11.687 31.2392 11.1558L33.0973 5.31247L34.9554 11.1558C35.0881 11.687 35.619 11.1558 36.1499 11.1558C36.6808 11.1558 37.2117 11.687 37.3444 11.1558L40.397 1.72682C40.6625 1.06281 40.2643 0.265981 39.6007 0.133179Z" fill="white"/>
<path d="M49.5547 0C50.0856 0 50.6165 0.398403 50.7492 0.929612C50.8819 1.19522 50.8819 1.46083 50.7492 1.72643L49.5547 5.31209L48.3602 1.72643C48.2275 1.46083 48.2275 1.19522 48.3602 0.929612C48.4929 0.398403 49.0238 0 49.5547 0ZM42.1223 0.929612C41.9896 1.19522 41.9896 1.46083 42.1223 1.72643L43.3168 5.31209L44.5113 1.72643C44.644 1.46083 44.644 1.19522 44.5113 0.929612C44.3786 0.398403 43.8477 0 43.3168 0C42.7859 0 42.255 0.398403 42.1223 0.929612ZM36.1499 11.9522C36.6807 11.9522 37.2116 11.5538 37.3443 11.0226C37.4771 10.757 37.4771 10.4914 37.3443 10.2258L36.1499 6.64012L34.9554 10.2258C34.8227 10.4914 34.8227 10.757 34.9554 11.0226C35.0881 11.5538 35.619 11.9522 36.1499 11.9522ZM29.9119 11.9522C30.4428 11.9522 30.9737 11.5538 31.1065 11.0226C31.2392 10.757 31.2392 10.4914 31.1065 10.2258L29.9119 6.64012L28.7175 10.2258C28.5847 10.4914 28.5847 10.757 28.7175 11.0226C28.9829 11.5538 29.3811 11.9522 29.9119 11.9522Z" fill="white"/>
<path d="M33.0974 0C33.6283 0 34.1592 0.398403 34.2919 0.929612C34.4246 1.19522 34.4246 1.46083 34.2919 1.72643L33.0974 5.31209L31.9029 1.72643C31.7702 1.46083 31.7702 1.19522 31.9029 0.929612C32.0356 0.398403 32.5665 0 33.0974 0ZM46.5022 11.9522C47.0331 11.9522 47.564 11.5538 47.6967 11.0226C47.8294 10.757 47.8294 10.4914 47.6967 10.2258L46.5022 6.64012L45.3077 10.2258C45.175 10.4914 45.175 10.757 45.3077 11.0226C45.4404 11.5538 45.8386 11.9522 46.5022 11.9522Z" fill="white"/>
</svg>
